<?xml version="1.0" encoding="UTF-8" standalone="no"?>
<svg
   xmlns="http://www.w3.org/2000/svg"
   viewBox="0 0 180 86.763466">
  <path
     d="m 126.08723,4.2983525 c 0,0 -3.37153,1.341845 -7.29348,5.678128 -3.94226,4.3328985 -6.20079,9.1830365 -4.51569,10.4842595 0.6479,0.480004 2.14478,0.560569 4.87247,-1.882779 2.11974,-1.913246 4.27874,-4.401954 5.74787,-7.979981 1.75211,-4.2868605 1.18883,-6.2454665 1.18883,-6.2996275 m 21.49524,7.7701045 c -4.37284,-2.2280565 -7.54737,-4.9652295 -10.87422,-6.6618305 -3.16572,-1.628222 -5.2076,-2.297113 -7.76469,-1.962667 -0.41772,0.06093 -1.06359,0.264713 -1.06359,0.264713 0,0 1.33034,4.496059 -3.9057,12.0630595 -5.31051,7.652305 -10.12477,7.623193 -11.49369,5.50075 -1.44001,-2.221288 0.40485,-6.749844 3.50017,-10.782148 3.24087,-4.2178045 8.92442,-7.7152655 8.92442,-7.7152655 0,0 -1.81034,-1.105566 -6.27932,1.416316 -4.32952,2.460951 -11.82272,8.3225495 -18.743848,18.1893715 -6.926542,9.873592 -8.30833,15.30664 -9.309636,19.580638 -1.001983,4.278737 -0.08395,8.855361 4.659897,8.855361 4.746559,0 10.253397,-7.23594 11.812557,-9.751729 2.88544,-4.689009 4.77905,-11.875527 0.8395,-10.870836 -1.941,0.482712 -3.51168,2.632913 -4.49809,4.694425 -1.01687,2.124474 -1.42985,4.160936 -1.42985,4.160936 0,0 -1.63703,0.579525 -3.838678,2.23212 -2.209101,1.649209 -3.638957,3.228686 -3.638957,3.228686 0,0 0.01289,-3.418928 2.737173,-8.944727 2.724314,-5.533923 7.722712,-8.070023 10.553312,-8.302916 2.54693,-0.21326 5.86431,1.958605 3.06282,9.958219 C 108.02311,45.219192 99.722232,54.92624 91.003625,55.048102 82.94985,55.168611 77.671162,44.891516 88.868995,26.960088 101.25431,7.1282765 115.81691,1.0412315 120.53774,0.3594775 c 4.7215,-0.675661 6.25427,1.4109 6.25427,1.4109 0,0 3.95512,-1.835389 8.98264,-1.494173 5.7702,0.392669 10.22767,4.482519 16.10822,7.332076 -1.53005,1.498235 -2.99511,3.0235505 -4.3004,4.4601765 m 25.89584,-6.6855255 c -3.98965,2.57672 -9.53102,4.8961745 -14.83612,4.382997 -1.35132,1.3953285 -2.78862,2.9991775 -4.23134,4.7567095 9.21621,1.823203 17.28352,-3.890807 21.58392,-8.7524535 C 178.66966,2.7290315 180,0.0270625 180,0.0270625 c 0,0 -2.56251,2.811645 -6.52169,5.355869 M 161.22162,31.359334 c 0.11306,-0.20649 0.17738,-0.383868 0.17738,-0.383868 0,0 -0.11374,-0.77586 -0.85439,-0.800909 -0.87471,-0.04671 -2.06896,0.112384 -5.20693,3.593597 -3.12713,3.464288 -5.02345,6.472944 -6.66928,9.479569 -1.79341,3.293003 -2.52052,5.740413 -1.48808,6.361913 0.29383,0.182118 0.73118,0.19972 1.08864,0.112385 0.6953,-0.1679 1.49147,-0.817158 2.68911,-2.216548 0.57005,-0.655351 1.20103,-1.577446 1.94777,-2.613957 2.07235,-2.831278 7.27521,-11.742154 8.31578,-13.532182 m -32.61521,3.800087 c 0.52062,-1.37908 1.18478,-4.060738 -0.20785,-5.114851 -1.4874,-1.123846 -5.28139,1.507713 -5.30373,4.199526 -0.021,2.768993 2.67895,4.022825 3.33362,4.200203 0.36356,0.09207 0.48677,0.08057 0.67972,-0.21326 0.0988,-0.199719 0.96881,-1.700662 1.49824,-3.071618 m -2.86445,5.027516 c -0.10697,-0.03588 -1.33305,-0.599159 -2.61802,-1.668843 -1.26941,-1.052759 -1.91596,-2.283573 -1.97418,-2.376324 -0.042,-0.0941 -0.0988,-0.01557 -0.15436,0.05687 -0.0569,0.07447 -0.2857,0.284347 -2.3181,3.250351 -2.02969,2.988346 -5.12839,9.132937 -2.31539,10.176218 1.81034,0.664152 4.80748,-2.492094 6.44315,-4.585425 1.52058,-1.951835 2.9396,-4.419556 3.02423,-4.598965 0.0765,-0.177378 0.007,-0.22477 -0.0873,-0.253881 m 31.93075,7.075487 c -0.763,1.241646 -1.62619,3.573964 0.89569,2.115673 3.07162,-1.778519 7.45462,-8.428164 7.45462,-8.428164 l 1.97688,0 c 0,0 -2.61396,4.134533 -6.01528,7.899415 -3.11359,3.46158 -6.91368,6.592779 -9.5906,6.286089 -3.12713,-0.363557 -2.15088,-4.473719 -2.15088,-4.473719 0,0 -4.48929,4.772279 -7.57715,4.426328 -4.18328,-0.457662 -2.90914,-5.630738 -2.90914,-5.630738 0,0 -4.72286,5.819629 -7.9441,5.630738 -5.04985,-0.289762 -3.79331,-6.454666 -2.38241,-10.757098 0.75351,-2.318101 1.44881,-4.138595 1.44881,-4.138595 0,0 -0.50235,0.12254 -1.5788,0.293148 -0.56057,0.07447 -1.58422,0.134726 -1.58422,0.134726 0,0 -2.10213,3.710721 -3.78451,5.951642 -1.68306,2.228057 -8.83234,9.920308 -13.04812,8.373327 -3.87727,-1.416318 -2.60245,-7.37473 -0.33445,-12.115191 3.30722,-6.89811 12.59452,-16.817062 17.96325,-15.522608 5.55762,1.346583 0.12796,11.493689 0.12796,11.493689 0,0 0.003,0.03588 0.0582,0.06229 0.11239,0.04062 0.40215,0.06973 1.0751,-0.05145 1.06698,-0.19972 2.0324,-0.605929 2.0324,-0.605929 0,0 5.57929,-11.710335 11.7557,-19.367378 6.1737,-7.663138 18.47778,-20.8527505 23.31844,-17.6741635 1.18613,0.792108 0.64655,3.490691 -0.94309,6.77557 -0.69935,0.215291 -1.43324,0.425842 -2.18676,0.567339 1.0724,-1.938295 1.77446,-3.562455 1.98704,-4.702549 0.71426,-3.954447 -8.5182,4.399923 -15.11098,13.3710535 -6.59819,8.981286 -10.55602,17.108178 -10.55602,17.108178 0,0 1.32627,-0.760288 3.40403,-2.435901 2.16713,-1.734514 5.14193,-4.475749 8.38213,-7.824944 2.17728,-2.248368 4.73775,-5.074907 7.13371,-8.231153 0.71493,-0.03859 1.4197,-0.112385 2.10213,-0.222738 -2.68166,3.596983 -5.48721,6.885247 -7.86759,9.306931 -2.62344,2.659993 -5.48112,5.527153 -7.96035,7.616422 -3.94564,3.310605 -6.98138,5.194739 -6.98138,5.194739 0,0 -5.78374,11.635186 -2.63833,12.378549 1.84622,0.441414 5.49195,-5.174429 5.49195,-5.174429 0,0 4.74926,-7.259635 7.61642,-10.528265 3.90841,-4.446637 7.27792,-7.024034 10.64539,-7.074134 1.95184,-0.03317 3.11156,2.05068 3.11156,2.05068 l 0.92007,-1.423763 5.69099,0 c 0,0 -10.598,18.003192 -11.44833,19.34639 M 173.47831,5.3829315 c -3.98965,2.57672 -9.53102,4.8961745 -14.83612,4.382997 -1.35132,1.3953285 -2.78862,2.9991775 -4.23134,4.7567095 9.21621,1.823203 17.28352,-3.890807 21.58392,-8.7524535 C 178.66966,2.7290315 180,0.0270625 180,0.0270625 c 0,0 -2.56251,2.811645 -6.52169,5.355869 m -11.49369,47.0512125 0.65738,0 c 0.2356,0 0.41298,0.01828 0.51589,0.06703 0.20852,0.08056 0.30127,0.235601 0.30127,0.473234 0,0.167222 -0.0609,0.296532 -0.19295,0.366265 -0.0636,0.04671 -0.15098,0.08463 -0.27216,0.09817 0.14759,0.02234 0.26539,0.09004 0.33444,0.182794 0.0609,0.100199 0.0934,0.203105 0.0934,0.29721 l 0,0.137434 c 0,0.05145 0.005,0.0914 0.005,0.134728 0.0135,0.06635 0.0135,0.09004 0.0135,0.107645 l 0.0183,0.02237 -0.31752,0 0,-0.01625 c -0.007,-0.0061 -0.007,-0.0061 -0.007,-0.02372 l -0.003,-0.06364 0,-0.150299 c 0,-0.217322 -0.065,-0.358818 -0.17738,-0.436674 -0.0765,-0.03453 -0.19701,-0.05687 -0.37033,-0.05687 l -0.26945,0 0,0.747427 -0.32971,0 0,-1.886844 z m 1.14686,0.565985 c 0,-0.135403 -0.0454,-0.227477 -0.13269,-0.276899 -0.0738,-0.03791 -0.21258,-0.06703 -0.39876,-0.06703 l -0.2857,0 0,0.684463 0.30533,0 c 0.13743,0 0.24034,-0.02234 0.30804,-0.04333 0.12728,-0.05958 0.20378,-0.14962 0.20378,-0.29721 m 1.27211,0.380483 c 0,0.469171 -0.16383,0.888923 -0.49896,1.22066 -0.34121,0.343924 -0.74674,0.505054 -1.21998,0.505054 -0.48,0 -0.89027,-0.16113 -1.22878,-0.505054 -0.32768,-0.331737 -0.49422,-0.751489 -0.49422,-1.22066 0,-0.473234 0.16654,-0.879443 0.51182,-1.217951 0.33174,-0.338507 0.73118,-0.500991 1.21118,-0.500991 0.47324,0 0.87877,0.162484 1.21998,0.500991 0.33513,0.338508 0.49896,0.744717 0.49896,1.217951 m -1.71894,-1.481987 c -0.40756,0 -0.76029,0.14759 -1.05411,0.431936 -0.28299,0.282992 -0.43126,0.630978 -0.43126,1.050051 0,0.412302 0.14827,0.767058 0.43126,1.059531 0.28705,0.286377 0.63504,0.434643 1.05411,0.434643 0.40418,0 0.75623,-0.148266 1.04599,-0.434643 0.28909,-0.292473 0.42788,-0.647229 0.42788,-1.059531 0,-0.419073 -0.13879,-0.767059 -0.42788,-1.050051 -0.28976,-0.284346 -0.64181,-0.431936 -1.04599,-0.431936 M 93.747568,14.25115 l -5.400551,0 -3.046569,4.948305 5.397843,0 3.049277,-4.948305 z M 68.190239,31.345793 c 2.296436,-3.154891 8.633976,-14.189564 8.633976,-14.189564 0,0 -0.108999,-0.765705 -0.849654,-0.80091 -0.876058,-0.04807 -2.332318,0.248465 -5.243484,3.887422 -2.914551,3.645728 -5.152764,6.537261 -6.797911,9.543886 -1.800184,3.293003 -2.586198,5.604333 -1.555781,6.234634 0.289762,0.188211 0.734562,0.20649 1.088641,0.120509 0.670245,-0.177378 1.552396,-0.847623 2.762899,-2.238213 0.566662,-0.657382 1.204411,-1.532762 1.961314,-2.557764 M 39.196377,16.442654 c -1.487403,-1.128584 -5.281397,1.500266 -5.300353,4.20562 -0.02573,2.762222 3.433144,3.551622 3.877266,3.567871 0,0 0.386576,0.109676 0.540936,-0.224769 0.100198,-0.19972 0.566662,-1.062914 1.08864,-2.435902 0.525364,-1.377726 1.182069,-4.067508 -0.206489,-5.11282 m -2.240921,9.518836 c -0.102906,-0.04468 -1.532763,-0.450892 -2.924029,-1.348614 -1.40413,-0.892307 -2.048649,-2.219934 -2.096717,-2.312685 -0.04807,-0.0941 -0.106291,-0.01963 -0.164515,0.06093 -0.05755,0.07379 -0.360172,0.459693 -2.382417,3.439238 -2.02563,2.976159 -5.036994,9.076067 -2.222641,10.122056 1.810339,0.663475 4.830504,-2.501572 6.479714,-4.594903 1.513806,-1.945065 3.323468,-4.948305 3.404033,-5.114851 0.0738,-0.179409 0.0027,-0.222061 -0.09343,-0.251173 m 44.125832,1.817109 1.977562,0 c 0,0 -9.906089,14.326999 -15.50636,13.673679 -3.133227,-0.360849 -2.203008,-4.225929 -2.203008,-4.225929 0,0 -4.401954,5.143285 -8.418009,4.123023 -3.661301,-0.933604 -1.310701,-7.026742 -1.310701,-7.026742 -0.405532,0.161129 -8.321199,9.103825 -13.880172,6.959041 -5.818947,-2.23889 -2.810967,-9.716525 -1.70337,-11.961508 0.930896,-1.89632 1.974177,-3.744571 1.974177,-3.744571 0,0 -0.89163,0.257942 -1.44272,0.385898 -0.553799,0.123217 -1.39736,0.287055 -1.39736,0.287055 0,0 -2.757483,4.478456 -4.431742,6.714638 -1.687123,2.23212 -8.836405,9.914213 -13.048794,8.386189 -4.215773,-1.540885 -3.1752,-7.426179 -0.81174,-12.108417 3.845448,-7.602206 12.952658,-16.94028 18.427004,-15.536827 5.54611,1.414285 0.966101,10.399634 0.966101,10.399634 0,0 1.095411,0.148267 3.739156,-1.652594 3.810242,-2.601093 8.817448,-9.584508 14.257269,-8.774797 2.557087,0.38996 4.933411,3.00798 1.681029,7.988782 -1.037188,1.597756 -2.789303,3.02829 -4.125732,1.620098 -0.830697,-0.879443 -0.106291,-2.483293 0.762997,-3.580735 1.230814,-1.548334 2.937569,-1.343875 2.937569,-1.343875 0,0 0.895015,-2.059482 -1.385173,-2.014798 -1.848252,0.03182 -6.5244,4.347793 -9.17153,8.700325 -2.421684,4.004545 -6.086368,10.81532 -2.395957,12.296629 3.371536,1.35877 9.802508,-6.270516 12.791531,-10.270323 2.975482,-4.002514 9.744958,-13.077906 15.444751,-13.451619 1.949127,-0.128633 3.124426,1.659365 3.124426,1.659365 l 0.662798,-1.040573 5.67745,0 c 0,0 -10.713768,17.898256 -11.554621,19.250933 -0.656705,1.069684 -1.529377,3.452778 0.892307,2.112965 2.427777,-1.345907 7.470864,-7.824944 7.470864,-7.824944 m -3.087867,28.673638 c -4.309203,-3.021526 -9.554718,-4.353892 -14.318198,-4.170421 -4.814933,0.197011 -6.972581,3.793991 -6.972581,3.793991 -2.176606,-3.793991 -6.472946,-6.109384 -13.116498,-6.05793 -10.721215,0.123216 -21.361188,5.070169 -29.795445,5.070169 -8.0862718,0 -13.97969023,-5.070169 -13.78606383,-14.097492 C 0.34246584,25.173444 13.710134,10.918886 23.697464,4.4953645 c 5.747861,-3.691765 10.559409,-4.786499 13.702791,-4.43242 2.286281,0.260651 5.055951,2.911843 3.316698,6.811452 -2.557087,5.7160395 -6.093138,5.2468685 -5.957735,2.512404 0.07109,-1.77852 1.24977,-2.902365 2.142077,-3.50694 0.56937,-0.394023 1.561197,-0.509115 2.083176,-0.513178 0.49219,-0.433289 0.882151,-3.555684 -3.227332,-2.521205 C 31.644948,3.8792805 26.691903,7.9217385 21.96769,13.124602 17.246185,18.335589 9.8910896,28.211889 8.0875211,38.565485 7.24396,43.37771 7.8038517,52.130842 19.185157,52.021165 c 9.648146,-0.08463 23.892549,-6.428938 36.970457,-6.319261 5.074907,0.03994 9.500556,1.4109 12.939794,3.534697 3.39117,2.102133 7.458001,5.14261 8.898013,7.215636" />
  <path class="tx-brasil"
     d="m 166.85996,62.997057 c -0.82122,0 -1.3424,0.54897 -1.3424,1.43654 l 0,20.89122 c 0,0.88621 0.52118,1.43548 1.3424,1.43548 0.82596,0 1.34451,-0.54927 1.34451,-1.43548 l 0,-20.89122 c 0,-0.88757 -0.51855,-1.43654 -1.34451,-1.43654 z m -6.38193,1.64917 c -0.91533,0 -1.64917,0.73384 -1.64917,1.64916 0,0.91601 0.73384,1.65129 1.64917,1.65129 0.91735,0 1.64811,-0.73528 1.64811,-1.65129 0,-0.91532 -0.73076,-1.64916 -1.64811,-1.64916 z m -57.06711,0.18406 c -1.00739,0 -1.43442,0.64194 -1.43442,1.46722 l 0,18.81468 c 0,0.82461 0.42703,1.4651 1.43442,1.4651 l 5.16225,0 c 4.58339,0 7.11818,-2.93346 7.11818,-6.35442 0,-2.86919 -2.0767,-5.09864 -4.7042,-5.37487 l 0,-0.0603 c 1.7731,-0.54906 3.02329,-2.38479 3.02329,-4.7645 0,-2.47449 -2.01581,-5.19292 -5.86464,-5.19292 l -4.73488,0 z m 1.25248,2.32195 3.14707,0 c 2.38309,0 3.51096,1.40477 3.51096,3.35864 0,1.98771 -1.31198,3.51201 -3.603,3.51201 l -3.05503,0 0,-6.87065 z m 15.21275,2.99262 c -0.82325,0 -1.34134,0.55062 -1.34134,1.43548 l 0,13.74448 c 0,0.88553 0.51809,1.43548 1.34134,1.43548 0.82528,0 1.34556,-0.54995 1.34556,-1.43548 l 0,-7.7275 c 0,-3.14609 1.95472,-4.33789 3.54165,-4.61005 1.13196,-0.21665 1.68089,-0.70422 1.68089,-1.46722 0,-0.763 -0.54825,-1.37519 -1.49472,-1.37519 -1.55781,0 -3.05685,1.55646 -3.66752,2.80961 l -0.0603,0 0,-1.37413 c 0,-0.88485 -0.52028,-1.43548 -1.34556,-1.43548 z m 30.70265,0 c -2.7189,0 -5.52826,1.58803 -5.52826,4.58044 0,4.52178 8.6732,4.33839 8.6732,7.51698 0,1.10015 -1.1904,2.19713 -3.14494,2.19713 -2.93148,0 -3.90964,-1.98239 -5.09984,-1.98239 -0.58223,0 -1.10015,0.48686 -1.10015,1.22074 0,1.37299 2.68805,3.08254 6.10901,3.08254 3.02423,0 5.926,-1.61663 5.926,-5.0078 0,-4.70525 -8.67743,-4.39975 -8.67743,-7.23983 0,-1.37502 1.31506,-2.04586 2.84241,-2.04586 2.56656,0 3.02371,1.65023 4.18479,1.65023 0.82461,0 1.22181,-0.52274 1.22181,-1.10227 0,-1.679 -3.17719,-2.86991 -5.4066,-2.86991 z m 9.89923,0 c -0.82528,0 -1.34451,0.54995 -1.34451,1.43548 l 0,13.74659 c 0,0.88486 0.51923,1.43654 1.34451,1.43654 0.8246,0 1.34345,-0.55168 1.34345,-1.43654 l 0,-13.74659 c 0,-0.88553 -0.51885,-1.43548 -1.34345,-1.43548 z m -25.72447,0.003 c -4.58068,0 -7.14674,3.99917 -7.14674,8.30296 0,4.3092 2.56606,8.31248 7.14674,8.31248 1.74128,0 3.26914,-0.79621 4.43022,-2.44678 l 0.0614,0 0,1.13083 c 0,0.94985 0.70274,1.31595 1.25247,1.31595 0.5186,0 1.25036,-0.3661 1.25036,-1.31595 l 0,-13.98883 c 0,-0.94782 -0.73176,-1.31066 -1.25036,-1.31066 -0.54973,0 -1.25247,0.36284 -1.25247,1.31066 l 0,0.85473 -0.0614,0 c -1.25248,-1.37298 -2.56572,-2.16539 -4.43022,-2.16539 z m 0,2.31878 c 3.30045,0 4.45984,3.2382 4.45984,5.98418 0,2.75071 -1.15939,5.98735 -4.45984,5.98735 -3.29909,0 -4.45878,-3.23664 -4.45878,-5.98735 0,-2.74598 1.15969,-5.98418 4.45878,-5.98418 z m -30.09016,3.75638 3.90977,0 c 2.81164,0 4.4281,1.77162 4.4281,3.99968 0,2.41423 -1.92226,4.03353 -4.54975,4.03353 l -3.78812,0 0,-8.03321 z"
     />
</svg>
